<svg width="178" height="68" viewBox="0 0 178 68" fill="none" xmlns="http://www.w3.org/2000/svg">
<path fill-rule="evenodd" clip-rule="evenodd" d="M3.92867 34.5206L3.20117 33.7865C3.86513 33.1117 4.65675 32.5757 5.5299 32.2099C6.40306 31.8441 7.34028 31.6557 8.28697 31.6557C9.23366 31.6557 10.1709 31.8441 11.044 32.2099C11.9172 32.5757 12.7088 33.1117 13.3728 33.7865L12.6319 34.4939C12.0641 33.9208 11.3884 33.4659 10.6438 33.1555C9.89915 32.845 9.10039 32.6852 8.29364 32.6852C7.48689 32.6852 6.68814 32.845 5.94352 33.1555C5.1989 33.4659 4.52317 33.9208 3.95537 34.4939M6.51829 36.9501L5.85086 36.2826C6.17501 35.9484 6.56299 35.6827 6.99178 35.5012C7.42057 35.3197 7.88143 35.2262 8.34704 35.2262C8.81264 35.2262 9.27351 35.3197 9.7023 35.5012C10.1311 35.6827 10.5191 35.9484 10.8432 36.2826L10.1758 36.9501C9.69347 36.4745 9.0444 36.2062 8.36706 36.2026C8.03093 36.2 7.6977 36.2649 7.38704 36.3933C7.07639 36.5216 6.7946 36.711 6.55833 36.9501M8.36706 38.7388L7.07225 37.4707C7.42353 37.1377 7.8835 36.9433 8.36706 36.9234C8.84777 36.9385 9.30522 37.1338 9.64852 37.4707L8.36706 38.7388ZM8.36706 34.4939C8.9309 34.4892 9.48969 34.6006 10.0087 34.821C10.5276 35.0415 10.9957 35.3663 11.3838 35.7754L12.1914 34.9678C11.6935 34.4531 11.0972 34.0438 10.4379 33.7643C9.77861 33.4848 9.06982 33.3407 8.35371 33.3407C7.63761 33.3407 6.92882 33.4848 6.26952 33.7643C5.61022 34.0438 5.01389 34.4531 4.516 34.9678L5.31692 35.7821C5.70995 35.3717 6.18257 35.0458 6.70588 34.8243C7.22918 34.6028 7.79216 34.4904 8.36039 34.4939" fill="#0E6EB6"/>
<path fill-rule="evenodd" clip-rule="evenodd" d="M3.48201 39.6196H12.9929C6.17175 56.8726 4.98372 66.9842 11.9049 66.7172C-3.27903 67.6115 -1.31012 52.8614 3.48869 39.6196" fill="#0E6EB6"/>
<path fill-rule="evenodd" clip-rule="evenodd" d="M12.2256 13.1562C20.9021 -0.979879 34.9715 -2.42152 44.9963 2.72434C56.1156 8.44419 59.5462 21.6793 56.7764 33.3326C54.3403 43.9313 47.359 53.6157 38.3353 59.8428C32.8119 63.5896 26.5362 66.0839 19.9477 67.1511C24.999 65.5036 29.5194 62.5384 33.0426 58.5613C35.2293 56.187 37.1228 53.5585 38.6824 50.7324C43.8016 43.8312 46.1709 37.0702 46.3378 31.1834C46.6715 23.2878 43.2343 15.4522 35.9793 11.8281C29.6655 8.61773 21.1624 8.78458 12.2256 13.1629" fill="#F26329"/>
<path fill-rule="evenodd" clip-rule="evenodd" d="M5.67098 29.1012C12.7457 15.0852 27.3157 14.1041 35.8988 20.171C39.2815 22.5714 41.6583 26.1367 42.573 30.1824C43.741 35.335 42.8867 40.6744 40.9512 45.7668C39.1709 50.5049 36.4845 54.8507 33.0422 58.5614C28.1566 63.9609 21.162 68.0789 13.6868 67.9988C10.6993 68.0146 7.76333 67.2212 5.19043 65.7029C8.72112 67.4048 14.214 66.8042 17.5712 65.4626C23.1242 63.1867 27.5826 58.468 30.3658 53.2487C33.803 46.8547 36.5128 36.563 31.0332 30.6696C26.0609 25.1967 16.1429 23.3279 5.67098 29.0945" fill="#09A14A"/>
<path d="M171.86 37.1304L173.542 32.3049C173.342 32.3049 173.128 32.3049 172.948 32.3049C172.425 32.2838 171.903 32.3707 171.415 32.5601C170.927 32.7496 170.483 33.0376 170.112 33.4061C169.367 34.1409 168.86 35.0827 168.657 36.1092C168.51 36.5746 168.526 37.0761 168.703 37.5308C168.788 37.6988 168.921 37.8378 169.085 37.9304C169.249 38.0231 169.437 38.0652 169.624 38.0514C170.447 37.9996 171.232 37.6889 171.867 37.1638M177.206 30.1624L173.682 40.0537H170.819L171.146 39.1127C170.285 39.8001 169.23 40.1993 168.129 40.254C167.693 40.2728 167.261 40.1682 166.882 39.9521C166.503 39.736 166.193 39.4173 165.987 39.0326C165.499 38.0648 165.401 36.9468 165.713 35.909C166.074 34.1506 167.06 32.583 168.49 31.4973C170.074 30.3001 172.026 29.6934 174.009 29.782C175.074 29.7708 176.135 29.885 177.173 30.1224M165.506 29.9956L161.936 40.0537H159.072L162.656 29.9956H165.506ZM163.557 27.179C163.64 26.7576 163.862 26.3761 164.187 26.0964C164.513 25.8166 164.924 25.6549 165.353 25.6373C165.536 25.6323 165.717 25.6702 165.883 25.7478C166.049 25.8255 166.194 25.9407 166.307 26.0845C166.423 26.2388 166.502 26.418 166.537 26.6081C166.572 26.7981 166.562 26.9936 166.507 27.179C166.411 27.6167 166.177 28.012 165.84 28.307C165.513 28.5776 165.103 28.7283 164.679 28.7342C164.5 28.7389 164.322 28.7029 164.159 28.6289C163.996 28.5549 163.852 28.4449 163.738 28.307C163.628 28.143 163.557 27.9568 163.528 27.7617C163.499 27.5667 163.514 27.3677 163.571 27.179M154.594 37.6844L156.429 32.4584C156.193 32.4202 155.954 32.4023 155.715 32.405C154.775 32.3853 153.858 32.692 153.119 33.2727C152.416 33.8104 151.924 34.5782 151.731 35.4418C151.646 35.7335 151.63 36.0409 151.684 36.3398C151.739 36.6387 151.862 36.9208 152.044 37.1638C152.265 37.3978 152.536 37.5793 152.836 37.6948C153.136 37.8104 153.459 37.857 153.78 37.8312C154.054 37.8157 154.327 37.7755 154.594 37.7111M161.936 24.9165L156.656 39.9403C155.544 40.1466 154.417 40.2604 153.286 40.2807C151.57 40.2807 150.309 39.8401 149.495 38.9458C148.68 38.0514 148.454 36.8968 148.781 35.4284C149.118 33.8458 149.996 32.4299 151.263 31.4239C152.572 30.3311 154.231 29.748 155.935 29.782C156.395 29.7895 156.855 29.8252 157.31 29.8888L159.066 24.8898L161.936 24.9165ZM142.393 29.9956L141.959 31.1235C142.99 30.3287 144.237 29.8635 145.537 29.7887C145.87 29.7573 146.206 29.8171 146.508 29.9617C146.81 30.1063 147.067 30.3302 147.252 30.6096C147.429 30.9604 147.535 31.3426 147.563 31.7343C147.592 32.126 147.543 32.5195 147.419 32.8922C147.356 33.1976 147.274 33.4986 147.172 33.7933L144.976 40.0604H142.126L144.242 34.0536C144.32 33.8852 144.379 33.7082 144.416 33.5263C144.616 32.5318 144.416 32.0446 143.835 32.0446C143.254 32.0446 142.246 32.5452 141.105 33.593L138.816 40.0737H135.953L139.53 29.9956H142.393ZM138.322 24.9165L132.983 40.0804H129.899L135.238 24.9165H138.322ZM126.442 24.9165L121.102 40.0804H118.266L123.605 24.9165H126.442ZM113.761 37.1571L115.429 32.3316C115.229 32.3316 115.015 32.3316 114.835 32.3316C114.314 32.3107 113.794 32.3978 113.309 32.5873C112.823 32.7768 112.381 33.0647 112.012 33.4328C111.273 34.1502 110.762 35.0696 110.544 36.0759C110.389 36.5411 110.41 37.0469 110.604 37.4975C110.686 37.6649 110.816 37.804 110.978 37.8967C111.14 37.9895 111.325 38.0318 111.511 38.0181C112.335 37.961 113.12 37.651 113.761 37.1304M119.1 30.1291L115.596 40.0537H112.746L113.08 39.1127C112.218 39.7937 111.167 40.1923 110.07 40.254C109.626 40.2806 109.184 40.1805 108.796 39.9654C108.407 39.7503 108.087 39.4291 107.874 39.0392C107.397 38.0686 107.299 36.9546 107.6 35.9157C107.959 34.1564 108.946 32.588 110.377 31.504C111.966 30.3063 113.922 29.6998 115.91 29.7887C116.972 29.7785 118.031 29.8927 119.067 30.1291M106.666 27.8465L105.825 29.9956H107.927L107.066 32.1981H104.951L103.696 35.4818C103.586 35.7297 103.505 35.9895 103.456 36.2561C103.249 37.1571 103.456 37.5909 104.036 37.5909C104.659 37.5012 105.259 37.2952 105.805 36.9836L105.224 39.6533C104.421 40.0656 103.537 40.2936 102.635 40.3207C102.25 40.3479 101.864 40.2771 101.514 40.1149C101.164 39.9526 100.86 39.7043 100.632 39.393C100.427 39.0268 100.297 38.6232 100.25 38.2059C100.203 37.7887 100.24 37.3662 100.359 36.9635C100.445 36.6765 100.532 36.3829 100.632 36.0892L102.161 32.2381H100.225L101.066 30.0356H103.015L103.823 27.9065L106.666 27.8465ZM99.6913 29.9956L96.1272 40.0537H93.2773L96.828 29.9956H99.6913ZM97.7224 27.179C97.8212 26.7518 98.0552 26.3679 98.3898 26.0845C98.7121 25.8076 99.1197 25.6497 99.5445 25.6373C99.7285 25.6313 99.9114 25.6686 100.078 25.7463C100.245 25.824 100.392 25.9398 100.506 26.0845C100.613 26.2429 100.687 26.4221 100.721 26.6106C100.756 26.7991 100.751 26.9927 100.706 27.179C100.599 27.6125 100.367 28.0048 100.038 28.307C99.7105 28.5717 99.3049 28.7217 98.8837 28.7342C98.7042 28.7431 98.5251 28.709 98.3614 28.6347C98.1977 28.5604 98.0541 28.448 97.9426 28.307C97.8276 28.1456 97.75 27.9607 97.7154 27.7656C97.6807 27.5705 97.69 27.3701 97.7424 27.179M88.4318 42.2829C88.5252 41.8157 88.1448 41.4687 87.3038 41.2885L86.1091 41.0015C85.7163 41.0251 85.3314 41.1225 84.9745 41.2885C84.76 41.3466 84.5648 41.4606 84.4088 41.6189C84.2529 41.7773 84.1418 41.9741 84.0868 42.1895C83.94 42.897 84.5674 43.2373 85.9823 43.2373C86.5756 43.262 87.1689 43.1876 87.7377 43.0171C87.9035 42.9639 88.0524 42.868 88.1695 42.7392C88.2866 42.6104 88.3679 42.453 88.4051 42.2829M88.285 35.6087C89.3195 35.6087 89.9869 34.8745 90.2872 33.4328C90.3404 33.2596 90.3578 33.0774 90.3383 32.8972C90.3188 32.7171 90.2628 32.5428 90.1738 32.385C90.0684 32.2515 89.9315 32.1463 89.7754 32.0787C89.6193 32.0111 89.4489 31.9834 89.2794 31.9979C88.2382 31.9979 87.5508 32.7254 87.2037 34.2137C87.0102 35.1281 87.3506 35.6087 88.2583 35.6087M95.1928 29.9956L94.432 32.1981H92.9036C93.0083 32.7314 93.0083 33.28 92.9036 33.8133C92.6711 34.8523 92.0834 35.7776 91.2417 36.4296C90.3393 37.1391 89.219 37.5141 88.0714 37.4908C87.6245 37.4785 87.1774 37.5098 86.7365 37.5842C86.6167 37.5958 86.504 37.6465 86.416 37.7285C86.3279 37.8106 86.2693 37.9194 86.2493 38.0381C86.2159 38.1582 86.2493 38.265 86.4362 38.3985C87.0915 38.5928 87.7609 38.7357 88.4385 38.8257C89.6198 39.0326 90.4408 39.3663 90.8279 39.9069C91.0409 40.1889 91.1856 40.5166 91.2505 40.864C91.3153 41.2115 91.2986 41.5693 91.2016 41.9092C90.7277 44.085 88.8322 45.1929 85.5218 45.1929C84.3909 45.2774 83.2588 45.0463 82.2514 44.5255C81.9335 44.3488 81.6839 44.0707 81.5423 43.7357C81.4008 43.4006 81.3755 43.0278 81.4705 42.6767C81.6908 41.7156 82.6385 40.9347 84.3338 40.4275C83.9876 40.2693 83.7072 39.9958 83.5404 39.6537C83.3736 39.3116 83.3308 38.9222 83.4194 38.552C83.6263 37.6176 84.4072 36.9969 85.7621 36.6966C85.3048 36.3826 84.9584 35.9321 84.7726 35.4094C84.5868 34.8868 84.5711 34.3187 84.7276 33.7866C84.9911 32.7122 85.6273 31.7662 86.5229 31.1169C87.4657 30.3613 88.6456 29.9641 89.8534 29.9956H95.1928ZM83.8466 29.9956L80.2825 40.0804H77.4326L80.9499 29.9956H83.8466ZM81.8443 27.179C81.9439 26.7522 82.1779 26.3685 82.5117 26.0845C82.8313 25.8118 83.2332 25.6543 83.653 25.6373C83.8366 25.6343 84.0184 25.6731 84.1849 25.7505C84.3514 25.828 84.4981 25.9421 84.6141 26.0845C84.7265 26.2407 84.8012 26.4208 84.8325 26.6106C84.8638 26.8005 84.8507 26.9951 84.7943 27.179C84.6891 27.6131 84.4567 28.0059 84.1269 28.307C83.7977 28.5786 83.3856 28.7293 82.9589 28.7342C82.7807 28.7404 82.6034 28.7051 82.4412 28.6309C82.279 28.5568 82.1364 28.4459 82.0245 28.307C81.9169 28.1422 81.8437 27.9573 81.8093 27.7635C81.7749 27.5696 81.78 27.3709 81.8243 27.179M69.2566 27.4393L65.7326 37.5442H68.6025C69.3168 37.5567 70.0263 37.4267 70.6898 37.162C71.3533 36.8973 71.9574 36.5031 72.4669 36.0024C73.553 34.9952 74.2934 33.6709 74.5827 32.2181C74.7546 31.6338 74.794 31.0185 74.6982 30.4169C74.6024 29.8154 74.3737 29.2428 74.0287 28.7408C73.6289 28.2744 73.1237 27.91 72.555 27.6779C71.9862 27.4457 71.3703 27.3525 70.7583 27.406L69.2566 27.4393ZM67.1008 24.9165H71.8929C74.309 24.9165 76.0043 25.5839 76.9854 26.9721C77.9665 28.3604 78.2068 30.1291 77.7396 32.3116C77.2979 34.457 76.1853 36.4064 74.5626 37.8779C73.1385 39.2824 71.2234 40.0771 69.2232 40.0938H61.7881L67.1008 24.9165Z" fill="black"/>
<path fill-rule="evenodd" clip-rule="evenodd" d="M62.9901 50.4186H64.6386C65.1796 50.4362 65.7101 50.2665 66.1403 49.9381C66.318 49.7829 66.4578 49.5892 66.5492 49.3717C66.6406 49.1543 66.6811 48.9188 66.6676 48.6833C66.6807 48.4449 66.6402 48.2066 66.5489 47.986C66.4576 47.7653 66.318 47.568 66.1403 47.4085C65.7131 47.0762 65.1787 46.9124 64.6386 46.948H62.9901V50.4186ZM62.9901 51.333V55.1907H62.0156V46.0136H64.425C65.2772 45.9689 66.1207 46.2032 66.8278 46.681C67.1226 46.9216 67.3566 47.2283 67.5108 47.5761C67.665 47.924 67.7351 48.3033 67.7155 48.6833C67.7304 49.055 67.6578 49.4249 67.5036 49.7634C67.3495 50.1019 67.118 50.3995 66.8278 50.6322C66.1299 51.1329 65.2829 51.3823 64.425 51.3397L62.9901 51.333Z" fill="black"/>
<path fill-rule="evenodd" clip-rule="evenodd" d="M71.6393 54.3031C71.9382 54.3102 72.2352 54.2544 72.5111 54.1394C72.787 54.0245 73.0357 53.8529 73.2412 53.6357C73.4585 53.4109 73.6293 53.1455 73.7438 52.8546C73.8584 52.5637 73.9143 52.253 73.9086 51.9404C73.9176 51.6284 73.8631 51.3179 73.7483 51.0276C73.6336 50.7373 73.4611 50.4734 73.2412 50.2519C73.0416 50.0237 72.7953 49.8411 72.5189 49.7167C72.2424 49.5924 71.9425 49.529 71.6393 49.531C71.3326 49.5243 71.0281 49.5854 70.7478 49.71C70.4674 49.8346 70.218 50.0196 70.0175 50.2519C69.7985 50.4741 69.6266 50.7381 69.5119 51.0282C69.3973 51.3183 69.3422 51.6286 69.3501 51.9404C69.3399 52.5715 69.5798 53.1809 70.0175 53.6357C70.2241 53.8568 70.4759 54.0308 70.7557 54.146C71.0356 54.2612 71.3369 54.3148 71.6393 54.3031ZM71.6393 55.2108C71.2097 55.2286 70.7811 55.1551 70.3819 54.9952C69.9827 54.8353 69.6219 54.5926 69.3234 54.2831C68.7343 53.6306 68.4082 52.7828 68.4082 51.9037C68.4082 51.0247 68.7343 50.1769 69.3234 49.5244C69.9409 48.919 70.7712 48.58 71.636 48.58C72.5008 48.58 73.3311 48.919 73.9486 49.5244C74.5308 50.1802 74.8524 51.0268 74.8524 51.9037C74.8524 52.7807 74.5308 53.6273 73.9486 54.2831C73.6518 54.5912 73.2933 54.8331 72.8965 54.993C72.4996 55.1529 72.0735 55.2271 71.646 55.2108" fill="black"/>
<path fill-rule="evenodd" clip-rule="evenodd" d="M78.6945 53.549L80.4965 48.4632H81.0905L82.926 53.5423L84.8482 48.5567H85.7425L83.1662 55.1976H82.5789L80.7769 50.2186L78.9548 55.1976H78.3741L75.7979 48.5567H76.7856L78.6945 53.549Z" fill="black"/>
<path fill-rule="evenodd" clip-rule="evenodd" d="M91.1889 51.0995C91.1303 50.7501 90.9833 50.4216 90.7618 50.1451C90.5913 49.9377 90.3743 49.7735 90.1285 49.6657C89.8826 49.5578 89.6149 49.5094 89.3468 49.5244C89.0895 49.5334 88.8371 49.5977 88.6068 49.7128C88.3764 49.828 88.1736 49.9913 88.012 50.1918C87.8073 50.468 87.6515 50.7773 87.5515 51.1062L91.1889 51.0995ZM87.418 51.8871C87.416 52.1981 87.4771 52.5063 87.5976 52.7931C87.718 53.0799 87.8953 53.3393 88.1188 53.5556C88.3354 53.7847 88.5975 53.966 88.8883 54.0878C89.1791 54.2096 89.4921 54.2693 89.8074 54.2631C90.1944 54.2642 90.5786 54.1964 90.942 54.0629C91.3275 53.9087 91.6875 53.6972 92.0099 53.4355L92.2234 53.2553V54.2831H92.1567C91.825 54.5697 91.4455 54.7957 91.0354 54.9506C90.4244 55.1677 89.7662 55.2166 89.1298 55.0921C88.4934 54.9677 87.9022 54.6744 87.418 54.2431C87.1094 53.9327 86.8678 53.5622 86.7082 53.1547C86.5486 52.7471 86.4745 52.3111 86.4902 51.8737C86.4548 51.0059 86.7399 50.1555 87.2912 49.4843C87.542 49.1829 87.8579 48.9423 88.2151 48.7805C88.5723 48.6186 88.9615 48.5398 89.3535 48.5499C89.7511 48.5276 90.1487 48.5946 90.5171 48.7459C90.8855 48.8972 91.2154 49.1289 91.4826 49.4243C91.9827 50.0703 92.2422 50.8703 92.2168 51.6868V51.8203L87.418 51.8871Z" fill="black"/>
<path fill-rule="evenodd" clip-rule="evenodd" d="M95.1933 49.5243C95.3196 49.2895 95.4915 49.0823 95.6989 48.9148C95.9063 48.7473 96.1451 48.6229 96.4012 48.5489C96.6574 48.4749 96.9257 48.4528 97.1905 48.484C97.4552 48.5151 97.7111 48.5987 97.9431 48.7301C97.9567 48.7308 97.9698 48.7357 97.9805 48.744C97.9912 48.7524 97.9992 48.7638 98.0032 48.7768V49.818C97.9432 49.7846 98.0032 49.818 97.9231 49.818C96.4147 48.977 95.4937 50.185 95.1933 51.006V55.1841H94.2656V48.5098H95.1933V49.5243Z" fill="black"/>
<path fill-rule="evenodd" clip-rule="evenodd" d="M104.784 46.9747H101.841V46.1337H108.715V46.9747H105.772V55.0973H104.784V46.9747Z" fill="black"/>
<path fill-rule="evenodd" clip-rule="evenodd" d="M120.809 47.115V50.045H124.533V50.9126H120.809V54.1897H125.228V55.064H119.828V46.2406H125.054V47.115H120.809Z" fill="black"/>
<path fill-rule="evenodd" clip-rule="evenodd" d="M127.897 49.3976C128.12 49.121 128.401 48.8977 128.721 48.7441C129.041 48.5905 129.391 48.5105 129.746 48.51C130.07 48.4978 130.393 48.5547 130.693 48.6766C130.993 48.7986 131.264 48.9829 131.488 49.2174C131.635 49.3756 131.762 49.5503 131.868 49.738L132.002 49.5178C132.23 49.2089 132.527 48.9568 132.868 48.7809C133.21 48.605 133.587 48.51 133.971 48.5033C134.295 48.4903 134.618 48.5467 134.918 48.6687C135.219 48.7907 135.49 48.9755 135.713 49.2108C135.94 49.4521 136.116 49.7366 136.23 50.0473C136.345 50.358 136.396 50.6887 136.38 51.0195V54.9707H135.413V51.0595C135.434 50.6216 135.283 50.1927 134.992 49.8648C134.853 49.7092 134.68 49.5874 134.487 49.5088C134.294 49.4301 134.086 49.3967 133.877 49.411C133.603 49.4241 133.335 49.4979 133.093 49.6272C132.85 49.7564 132.64 49.9379 132.476 50.1585C132.352 50.2824 132.244 50.4215 132.155 50.5723V54.9707H131.188V51.0595C131.2 50.8425 131.169 50.6252 131.097 50.4202C131.025 50.2152 130.913 50.0264 130.767 49.8648C130.627 49.7112 130.454 49.5907 130.261 49.5122C130.068 49.4337 129.86 49.3991 129.653 49.411C129.377 49.4249 129.107 49.499 128.862 49.6281C128.618 49.7572 128.405 49.9383 128.238 50.1585C128.12 50.2893 128.011 50.4275 127.911 50.5723V54.9707H126.963V48.6301H127.897V49.3976Z" fill="black"/>
<path d="M138.449 48.6434H139.417V49.4443C139.62 49.1038 139.94 48.8496 140.318 48.7301C140.89 48.5007 141.517 48.4416 142.122 48.56C142.727 48.6784 143.285 48.9693 143.729 49.3976C144.288 50.073 144.597 50.9208 144.603 51.7977C144.609 52.6746 144.312 53.5267 143.762 54.2097C142.601 55.4778 140.899 55.1908 139.51 54.4567L139.417 54.3966V57.4868H138.449V48.6434ZM142.347 49.798C141.546 49.2774 140.378 49.3976 139.437 50.659V53.242C140.418 54.2965 141.686 54.3966 142.527 53.7826C142.822 53.532 143.056 53.2173 143.21 52.8626C143.364 52.5079 143.436 52.1226 143.418 51.7361C143.401 51.3497 143.295 50.9723 143.11 50.6329C142.924 50.2935 142.663 50.0011 142.347 49.778" fill="black"/>
<path d="M78.1068 41.5753H59.8193V42.6299H78.1068V41.5753Z" fill="black"/>
<path d="M176.032 41.5753H92.8301V42.6299H176.032V41.5753Z" fill="black"/>
<path fill-rule="evenodd" clip-rule="evenodd" d="M111.345 54.1296C111.644 54.1396 111.942 54.0852 112.218 53.9701C112.495 53.8549 112.743 53.6817 112.947 53.4621C113.382 53.0086 113.622 52.4022 113.614 51.7736C113.619 51.1415 113.38 50.5319 112.947 50.0716C112.747 49.8473 112.499 49.6709 112.222 49.5554C111.945 49.4398 111.645 49.3882 111.345 49.4042C111.044 49.3927 110.743 49.4463 110.465 49.5615C110.186 49.6767 109.935 49.8507 109.73 50.0716C109.291 50.5284 109.051 51.1403 109.062 51.7736C109.056 52.0853 109.111 52.3952 109.226 52.6851C109.34 52.9751 109.512 53.2393 109.73 53.4621C109.938 53.6797 110.189 53.8514 110.467 53.9663C110.745 54.0812 111.044 54.1368 111.345 54.1296ZM111.345 55.0439C110.916 55.058 110.488 54.9827 110.09 54.8231C109.691 54.6634 109.33 54.4227 109.029 54.1162C108.726 53.8024 108.489 53.4311 108.332 53.0241C108.175 52.6172 108.101 52.1829 108.115 51.7469C108.095 51.3061 108.165 50.866 108.323 50.4538C108.48 50.0416 108.72 49.6661 109.029 49.3508C109.328 49.0406 109.688 48.7966 110.087 48.6344C110.486 48.4723 110.915 48.3958 111.345 48.4097C111.774 48.3939 112.201 48.4696 112.598 48.6319C112.995 48.7942 113.353 49.0392 113.648 49.3508C113.954 49.6628 114.194 50.0335 114.354 50.4407C114.513 50.8479 114.588 51.2831 114.575 51.7202C114.586 52.1569 114.509 52.5913 114.35 52.9981C114.191 53.4049 113.952 53.776 113.648 54.0895C113.348 54.3943 112.989 54.634 112.593 54.7936C112.197 54.9533 111.772 55.0294 111.345 55.0172" fill="black"/>
<path fill-rule="evenodd" clip-rule="evenodd" d="M149.022 54.1297C149.32 54.1364 149.617 54.0804 149.893 53.9655C150.169 53.8505 150.418 53.6791 150.623 53.4623C151.06 53.0096 151.3 52.4026 151.291 51.7737C151.297 51.1414 151.058 50.5313 150.623 50.0718C150.417 49.8526 150.169 49.6779 149.893 49.5584C149.617 49.439 149.319 49.3774 149.018 49.3774C148.718 49.3774 148.42 49.439 148.144 49.5584C147.868 49.6779 147.619 49.8526 147.413 50.0718C147.194 50.2967 147.022 50.5631 146.908 50.8554C146.793 51.1476 146.738 51.4599 146.746 51.7737C146.737 52.0857 146.791 52.3963 146.906 52.6866C147.021 52.9768 147.193 53.2408 147.413 53.4623C147.619 53.6791 147.868 53.8505 148.143 53.9655C148.419 54.0804 148.716 54.1364 149.015 54.1297M149.015 55.0441C148.585 55.061 148.157 54.9871 147.758 54.8273C147.359 54.6674 146.998 54.4252 146.699 54.1164C146.394 53.8037 146.156 53.4326 145.999 53.0253C145.842 52.6181 145.769 52.1832 145.785 51.747C145.764 51.3051 145.836 50.8638 145.996 50.4512C146.156 50.0387 146.4 49.664 146.712 49.3509C147.009 49.0387 147.37 48.7933 147.769 48.631C148.168 48.4688 148.598 48.3934 149.028 48.4099C149.459 48.3964 149.887 48.4731 150.286 48.6352C150.685 48.7973 151.045 49.0411 151.344 49.3509C151.643 49.6669 151.877 50.0389 152.032 50.4456C152.186 50.8522 152.259 51.2855 152.245 51.7203C152.268 52.5979 151.945 53.4491 151.344 54.0897C151.043 54.3958 150.682 54.6363 150.283 54.7959C149.885 54.9556 149.457 55.031 149.028 55.0174" fill="black"/>
<path fill-rule="evenodd" clip-rule="evenodd" d="M156.082 53.629L157.891 48.5165H158.498L160.307 53.6157L162.229 48.6233H163.15L160.574 55.2509H159.987L158.171 50.2852L156.363 55.2509H155.769L153.192 48.6233H154.167L156.082 53.629Z" fill="black"/>
<path fill-rule="evenodd" clip-rule="evenodd" d="M168.61 51.0994C168.554 50.749 168.407 50.4196 168.183 50.1449C168.014 49.9377 167.798 49.7734 167.553 49.6656C167.308 49.5577 167.041 49.5093 166.774 49.5242C166.516 49.5282 166.262 49.5903 166.031 49.7058C165.8 49.8213 165.598 49.9874 165.44 50.1917C165.227 50.4628 165.07 50.7736 164.979 51.106L168.61 51.0994ZM164.845 51.8869C164.843 52.1981 164.904 52.5065 165.024 52.7934C165.145 53.0803 165.322 53.3396 165.546 53.5555C165.761 53.7829 166.021 53.9632 166.31 54.0849C166.598 54.2067 166.909 54.2673 167.222 54.263C167.609 54.2625 167.992 54.1948 168.356 54.0627C168.741 53.916 169.098 53.7038 169.411 53.4354L169.644 53.2551V54.283H169.598C169.258 54.5692 168.872 54.7949 168.456 54.9504C167.843 55.1687 167.183 55.2182 166.544 55.0937C165.905 54.9693 165.312 54.6754 164.825 54.2429C164.52 53.9304 164.281 53.5594 164.123 53.1522C163.965 52.7451 163.89 52.3102 163.904 51.8736C163.875 51.0078 164.157 50.1601 164.699 49.4842C164.964 49.1946 165.286 48.9625 165.644 48.8021C166.003 48.6416 166.39 48.5563 166.783 48.5513C167.176 48.5463 167.565 48.6217 167.927 48.773C168.29 48.9242 168.618 49.1481 168.89 49.4308C169.395 50.0748 169.66 50.8751 169.638 51.6934V51.8269L164.845 51.8869Z" fill="black"/>
<path fill-rule="evenodd" clip-rule="evenodd" d="M172.615 49.4576C172.743 49.2271 172.915 49.0242 173.122 48.8605C173.329 48.6967 173.565 48.5754 173.819 48.5035C174.073 48.4316 174.338 48.4104 174.6 48.4413C174.862 48.4722 175.115 48.5544 175.345 48.6834C175.345 48.6834 175.392 48.6834 175.418 48.7168V49.798C175.338 49.7112 175.418 49.798 175.338 49.7513C173.823 48.9036 172.909 50.125 172.608 50.9259V55.104H171.681V48.4565H172.615V49.4576Z" fill="black"/>
</svg>
